<?xml version="1.0" standalone="no"?><svg xmlns="http://www.w3.org/2000/svg" viewBox="0 0 1440 320"><path fill="#1dd3a2" fill-opacity="1" d="M0,288L24,256C48,224,96,160,144,149.3C192,139,240,181,288,208C336,235,384,245,432,250.7C480,256,528,256,576,229.3C624,203,672,149,720,160C768,171,816,245,864,277.3C912,309,960,299,1008,261.3C1056,224,1104,160,1152,122.7C1200,85,1248,75,1296,74.7C1344,75,1392,85,1416,90.7L1440,96L1440,320L1416,320C1392,320,1344,320,1296,320C1248,320,1200,320,1152,320C1104,320,1056,320,1008,320C960,320,912,320,864,320C816,320,768,320,720,320C672,320,624,320,576,320C528,320,480,320,432,320C384,320,336,320,288,320C240,320,192,320,144,320C96,320,48,320,24,320L0,320Z"></path></svg>